<?xml version="1.0" encoding="UTF-8" standalone="no"?>
<svg
   xmlns:dc="http://purl.org/dc/elements/1.1/"
   xmlns:cc="http://creativecommons.org/ns#"
   xmlns:rdf="http://www.w3.org/1999/02/22-rdf-syntax-ns#"
   xmlns:svg="http://www.w3.org/2000/svg"
   xmlns="http://www.w3.org/2000/svg"
   xmlns:sodipodi="http://sodipodi.sourceforge.net/DTD/sodipodi-0.dtd"
   xmlns:inkscape="http://www.inkscape.org/namespaces/inkscape"
   width="210mm"
   height="297mm"
   viewBox="0 0 210 297"
   version="1.1"
   id="svg8"
   inkscape:version="1.0.1 (c497b03c, 2020-09-10)"
   sodipodi:docname="idle.svg">
  <defs
     id="defs2" />
  <sodipodi:namedview
     id="base"
     pagecolor="#ffffff"
     bordercolor="#666666"
     borderopacity="1.0"
     inkscape:pageopacity="0.0"
     inkscape:pageshadow="2"
     inkscape:zoom="0.30648803"
     inkscape:cx="-757.23629"
     inkscape:cy="709.49717"
     inkscape:document-units="mm"
     inkscape:current-layer="layer1"
     inkscape:document-rotation="0"
     showgrid="false"
     inkscape:window-width="1825"
     inkscape:window-height="1174"
     inkscape:window-x="332"
     inkscape:window-y="83"
     inkscape:window-maximized="0" />
  <metadata
     id="metadata5">
    <rdf:RDF>
      <cc:Work
         rdf:about="">
        <dc:format>image/svg+xml</dc:format>
        <dc:type
           rdf:resource="http://purl.org/dc/dcmitype/StillImage" />
        <dc:title />
      </cc:Work>
    </rdf:RDF>
  </metadata>
  <g
     inkscape:label="Ebene 1"
     inkscape:groupmode="layer"
     id="layer1">
    <path
       id="path14"
       style="fill:#009800;fill-opacity:0.992908;fill-rule:evenodd;stroke:#000000;stroke-width:4.25817;stroke-miterlimit:4;stroke-dasharray:none;stroke-opacity:1"
       d="M 98.78698,73.119502 C 107.20196,106.14344 86.044133,141.1368 57.490842,140.26833 -21.42154,137.86817 5.751106,99.625852 11.061315,67.179214 15.977429,37.140601 21.726923,16.480601 55.143273,13.105482 90.256325,9.5589917 89.570663,36.950836 98.78698,73.119502 Z"
       sodipodi:nodetypes="sssss" />
    <ellipse
       style="fill:#42da4f;fill-opacity:0.992908;stroke:#000000;stroke-width:4.25817;stroke-miterlimit:4;stroke-dasharray:none;stroke-opacity:1"
       id="path840"
       cx="72.491974"
       cy="46.97501"
       rx="6.9667521"
       ry="7.4253502" />
    <ellipse
       style="fill:#42da4f;fill-opacity:0.992908;stroke:#000000;stroke-width:4.25817;stroke-miterlimit:4;stroke-dasharray:none;stroke-opacity:1"
       id="path840-9"
       cx="39.36935"
       cy="46.97501"
       rx="6.9667521"
       ry="7.4253502" />
    <path
       id="path840-9-9"
       style="fill:#42da4f;fill-opacity:0.992908;stroke:#000000;stroke-width:4.25817;stroke-miterlimit:4;stroke-dasharray:none;stroke-opacity:1"
       d="m 78.321101,79.052515 c 0,3.583562 -10.898663,7.082651 -19.518185,7.082651 -8.619523,0 -17.318159,-4.687138 -17.318159,-8.270699 0,-3.583561 8.943084,-0.548338 17.562607,-0.548338 8.619522,0 19.273737,-1.847159 19.273737,1.736386 z"
       sodipodi:nodetypes="sssss" />
    <path
       id="path14-9"
       style="fill:#009800;fill-opacity:0.992908;fill-rule:evenodd;stroke:#000000;stroke-width:4.25818;stroke-miterlimit:4;stroke-dasharray:none;stroke-opacity:1"
       d="m 204.36848,73.340642 c 0.66711,34.573518 -12.73633,67.766768 -41.29618,67.148848 -57.21836,-1.23798 -51.73977,-40.642498 -46.42956,-73.089135 4.91611,-30.038614 10.66561,-50.698616 44.08199,-54.073734 35.11309,-3.5464907 42.92369,22.69654 43.64375,60.014021 z"
       sodipodi:nodetypes="sssss" />
    <ellipse
       style="fill:#42da4f;fill-opacity:0.992908;stroke:#000000;stroke-width:4.25818;stroke-miterlimit:4;stroke-dasharray:none;stroke-opacity:1"
       id="path840-1"
       cx="179.62308"
       cy="49.520515"
       rx="6.9667521"
       ry="7.4253502" />
    <ellipse
       style="fill:#42da4f;fill-opacity:0.992908;stroke:#000000;stroke-width:4.25818;stroke-miterlimit:4;stroke-dasharray:none;stroke-opacity:1"
       id="path840-9-7"
       cx="144.95084"
       cy="47.196152"
       rx="6.9667521"
       ry="7.4253502" />
    <path
       id="path840-9-9-2"
       style="fill:#42da4f;fill-opacity:0.992908;stroke:#000000;stroke-width:4.25818;stroke-miterlimit:4;stroke-dasharray:none;stroke-opacity:1"
       d="m 184.67737,81.985413 c 0,3.583562 -11.67346,4.370893 -20.293,4.370893 -8.61952,0 -17.31817,-4.687136 -17.31817,-8.270698 0,-3.583561 8.94309,-0.548338 17.56262,-0.548338 8.61954,0 20.04855,0.864598 20.04855,4.448143 z"
       sodipodi:nodetypes="sssss" />
    <path
       id="path14-4"
       style="fill:#009800;fill-opacity:0.992908;fill-rule:evenodd;stroke:#000000;stroke-width:4.25818;stroke-miterlimit:4;stroke-dasharray:none;stroke-opacity:1"
       d="M 98.967055,218.89376 C 107.38204,251.9177 86.2305,286.67094 57.670915,286.04259 -16.205338,284.41722 11.354694,246.56229 11.241388,212.95348 11.138772,182.51541 23.188307,168.64617 55.323347,158.87974 91.21119,147.97277 89.750738,182.7251 98.967055,218.89376 Z"
       sodipodi:nodetypes="sssss" />
    <ellipse
       style="fill:#42da4f;fill-opacity:0.992908;stroke:#000000;stroke-width:4.25818;stroke-miterlimit:4;stroke-dasharray:none;stroke-opacity:1"
       id="path840-8"
       cx="72.67205"
       cy="192.74922"
       rx="6.9667521"
       ry="7.4253502" />
    <ellipse
       style="fill:#42da4f;fill-opacity:0.992908;stroke:#000000;stroke-width:4.25818;stroke-miterlimit:4;stroke-dasharray:none;stroke-opacity:1"
       id="path840-9-5"
       cx="39.549423"
       cy="192.74922"
       rx="6.9667521"
       ry="7.4253502" />
    <path
       id="path840-9-9-8"
       style="fill:#42da4f;fill-opacity:0.992908;stroke:#000000;stroke-width:4.25818;stroke-miterlimit:4;stroke-dasharray:none;stroke-opacity:1"
       d="m 78.888569,224.82678 c 0,3.58356 -11.286058,7.08265 -19.905579,7.08265 -8.619525,0 -17.31816,-4.68714 -17.31816,-8.2707 0,-3.58356 8.943084,-0.54834 17.562609,-0.54834 8.619521,0 19.66113,-1.84716 19.66113,1.73639 z"
       sodipodi:nodetypes="sssss" />
    <path
       id="path14-9-3"
       style="fill:#009800;fill-opacity:0.992908;fill-rule:evenodd;stroke:#000000;stroke-width:4.25818;stroke-miterlimit:4;stroke-dasharray:none;stroke-opacity:1"
       d="m 204.01944,219.11491 c 14.2259,29.14999 -12.76585,65.71101 -41.29619,67.14884 -67.678024,3.41075 -54.83895,-30.57025 -46.42959,-73.08913 5.90566,-29.85984 10.66561,-50.69862 44.08201,-54.07374 35.11311,-3.54649 27.27392,26.47091 43.64377,60.01403 z"
       sodipodi:nodetypes="sssss" />
    <ellipse
       style="fill:#42da4f;fill-opacity:0.992908;stroke:#000000;stroke-width:4.25818;stroke-miterlimit:4;stroke-dasharray:none;stroke-opacity:1"
       id="path840-1-0"
       cx="178.11183"
       cy="191.03339"
       rx="6.9667521"
       ry="7.4253502" />
    <ellipse
       style="fill:#42da4f;fill-opacity:0.992908;stroke:#000000;stroke-width:4.25818;stroke-miterlimit:4;stroke-dasharray:none;stroke-opacity:1"
       id="path840-9-7-6"
       cx="145.37653"
       cy="191.80817"
       rx="6.9667521"
       ry="7.4253502" />
    <path
       id="path840-9-9-2-2"
       style="fill:#42da4f;fill-opacity:0.992908;stroke:#000000;stroke-width:4.25818;stroke-miterlimit:4;stroke-dasharray:none;stroke-opacity:1"
       d="m 183.55354,225.04792 c 0,3.58356 -10.89868,7.08265 -19.51822,7.08265 -8.61953,0 -16.54339,1.12377 -16.54339,-2.45979 0,-3.58356 8.1683,-6.35925 16.78784,-6.35925 8.61954,0 19.27377,-1.84716 19.27377,1.73639 z"
       sodipodi:nodetypes="sssss" />
  </g>
</svg>
